<svg width="21" height="21" viewBox="0 0 21 21" fill="none" xmlns="http://www.w3.org/2000/svg">
<g clip-path="url(#clip0_1_35)">
<path d="M11.2874 0C7.26906 0 4 3.26954 4 7.28794C4 11.156 10.6119 20.1931 10.8935 20.5758L11.1562 20.9334C11.1713 20.954 11.191 20.9708 11.2138 20.9824C11.2366 20.9939 11.2618 21 11.2874 21C11.313 21 11.3384 20.994 11.3613 20.9825C11.3842 20.9709 11.4041 20.9541 11.4193 20.9334L11.6819 20.5758C11.9636 20.1931 18.5753 11.156 18.5753 7.28794C18.5753 3.26954 15.3057 0 11.2874 0ZM11.2874 4.67741C12.7271 4.67741 13.8979 5.84822 13.8979 7.28794C13.8979 8.72691 12.7271 9.89846 11.2874 9.89846C9.84843 9.89846 8.67683 8.72691 8.67683 7.28794C8.67683 5.84822 9.84838 4.67741 11.2874 4.67741Z" fill="white"/>
</g>
<defs>
<clipPath id="clip0_1_35">
<rect width="21" height="21" fill="white"/>
</clipPath>
</defs>
</svg>
